# xmcd
#
# Track frame offsets: 
#        150
#        12110
#        27958
#        44340
#        67880
#        81893
#        96990
#        110688
#        123005
#        135043
#        148563
#        161648
#        174625
#        184635
#        195258
#        206613
#        215920
#        229398
#        242258
#        253480
#
# Disc length: 3534 seconds
#
# Revision: 0
# Processed by: cddbd v1.4PL0 Copyright (c) Steve Scherf et al.
# Submitted via: ExactAudioCopy v0.90a11
#
DISCID=120dcc14
DTITLE=Della Reese and Bobby Lewis - Something Cool and Bad Bobby
DYEAR=1900
DGENRE=
TTITLE0=On The South Side Of Chicago
TTITLE1=I Had To Know My Way Around
TTITLE2=Mean To Me
TTITLE3=Something Cool
TTITLE4=I Heard You Cried Last Night
TTITLE5=I Don't Know Enough About You
TTITLE6=A House Is Not A Home
TTITLE7=Do I Worry?
TTITLE8=The Show Must Go On
TTITLE9=Some Of My Friends Are The Blues
TTITLE10=Too Many Memories
TTITLE11=Let Me Take Care Of You
TTITLE12=Hello Mary Lou
TTITLE13=The Life And Ways Of A Country Girl
TTITLE14=Love Me And Make It All Better
TTITLE15=Lady Lover
TTITLE16=Already Gone To My Heart
TTITLE17=How Long Has It Been
TTITLE18=Hitchin' Rides To Memories
TTITLE19=From Heaven To Heartache
EXTD=p1987 Allegiance Records Ltd\nAllegiance Extra CDP-72928\n20 trac
EXTD=ks\n58:52\ntracks 1-10: Della Reese "Something Cool"\ntracks 11-2
EXTD=0: Bobby Lewis "Bad Bobby"
EXTT0=
EXTT1=
EXTT2=
EXTT3=
EXTT4=
EXTT5=
EXTT6=
EXTT7=
EXTT8=
EXTT9=
EXTT10=performed by Bobby Lewis
EXTT11=performed by Bobby Lewis
EXTT12=performed by Bobby Lewis
EXTT13=performed by Bobby Lewis
EXTT14=performed by Bobby Lewis
EXTT15=performed by Bobby Lewis
EXTT16=performed by Bobby Lewis
EXTT17=performed by Bobby Lewis
EXTT18=performed by Bobby Lewis
EXTT19=performed by Bobby Lewis
PLAYORDER=
